<svg xmlns="http://www.w3.org/2000/svg" id="svg22" version="1.1" viewBox="0 0 105.833 105.833" height="400" width="400">
  <g transform="translate(0 -191.167)" id="layer1" fill="none" stroke="#000" stroke-width=".265" stroke-linejoin="miter">
    <path id="path24" d="M10.961 283.96l76.54-.19" stroke-linecap="butt" stroke-opacity="1"/>
    <path id="path28" d="M50.082 215.168l-.19-14.363H23.058l-.567 82.777" stroke-linecap="butt" stroke-opacity="1"/>
    <ellipse ry="6.52" rx="7.371" cy="221.877" cx="50.271" id="head" opacity="1" fill-opacity="1" fill-rule="nonzero" stroke-miterlimit="4" stroke-dasharray="none" stroke-dashoffset="0" stroke-opacity=".973"/>
    <path id="leg_right" d="M50.082 256.368l6.236 10.394" stroke-linecap="butt" stroke-opacity="1"/>
    <g id="face" stroke-linecap="butt" stroke-opacity="1">
      <path d="M47.615 218.523l-.034 2.439" id="path44"/>
      <path d="M46.01 219.726l2.807.066" id="path46"/>
      <path d="M53.461 218.556l-.1 2.005" id="path48"/>
      <path d="M51.991 219.559l2.405.066" id="path50"/>
      <path d="M47.615 225.505l5.88-.267" id="path52"/>
    </g>
    <g id="arm_right" stroke-linecap="butt" stroke-opacity="1">
      <path d="M58.02 234.634l-.379 6.426" id="path42"/>
      <path d="M50.13 237.563l9.732.142" id="path61"/>
    </g>
    <g id="arm_left" stroke-linecap="butt" stroke-opacity="1">
      <path d="M42.522 235.2l-.189 6.238" id="path40"/>
      <path d="M50.13 237.563l-9.64.378" id="path63"/>
    </g>
    <path id="leg_left" d="M50.082 256.368l-9.78 9.921" stroke-linecap="butt" stroke-opacity="1"/>
    <path id="body" d="M50.224 228.586l-.142 27.782" stroke-linecap="butt" stroke-opacity="1"/>
  </g>
</svg>
