<svg xmlns="http://www.w3.org/2000/svg" viewBox="0 0 105.833 105.833" height="400" width="400">
  <g transform="translate(0 -191.167)" fill="none" stroke="#000" stroke-width=".265">
    <path d="M10.961 283.96l76.54-.19M50.082 215.168l-.19-14.363H23.058l-.567 82.777"/>
    <ellipse ry="6.52" rx="7.371" cy="221.877" cx="50.271" stroke-opacity=".973"/>
    <path d="M50.082 256.368l6.236 10.394M47.615 218.523l-.034 2.439M46.01 219.726l2.807.066M53.461 218.556l-.1 2.005M51.991 219.559l2.405.066M47.615 225.505l5.88-.267"/>
    <g>
      <path d="M58.02 234.634l-.379 6.426M50.13 237.563l9.732.142"/>
    </g>
    <g>
      <path d="M42.522 235.2l-.189 6.238M50.13 237.563l-9.64.378"/>
    </g>
    <path d="M50.082 256.368l-9.78 9.921M50.224 228.586l-.142 27.782"/>
  </g>
</svg>
